<svg xmlns="http://www.w3.org/2000/svg" width="320" height="140" viewBox="0 0 320 140" shape-rendering="crispEdges">

  <!-- block size = 20 -->
  <!-- Letter D (7x7) -->
  <!-- Row 0 -->
  <rect x="0" y="0" width="20" height="20" fill="#ffffff"/>
  <rect x="20" y="0" width="20" height="20" fill="#ffffff"/>
  <rect x="40" y="0" width="20" height="20" fill="#ffffff"/>
  <rect x="60" y="0" width="20" height="20" fill="#ffffff"/>
  <!-- Row 1 -->
  <rect x="0" y="20" width="20" height="20" fill="#ffffff"/>
  <rect x="80" y="20" width="20" height="20" fill="#ffffff"/>
  <!-- Row 2 -->
  <rect x="0" y="40" width="20" height="20" fill="#ffffff"/>
  <rect x="80" y="40" width="20" height="20" fill="#ffffff"/>
  <!-- Row 3 -->
  <rect x="0" y="60" width="20" height="20" fill="#ffffff"/>
  <rect x="80" y="60" width="20" height="20" fill="#ffffff"/>
  <!-- Row 4 -->
  <rect x="0" y="80" width="20" height="20" fill="#ffffff"/>
  <rect x="80" y="80" width="20" height="20" fill="#ffffff"/>
  <!-- Row 5 -->
  <rect x="0" y="100" width="20" height="20" fill="#ffffff"/>
  <rect x="80" y="100" width="20" height="20" fill="#ffffff"/>
  <!-- Row 6 -->
  <rect x="0" y="120" width="20" height="20" fill="#ffffff"/>
  <rect x="20" y="120" width="20" height="20" fill="#ffffff"/>
  <rect x="40" y="120" width="20" height="20" fill="#ffffff"/>
  <rect x="60" y="120" width="20" height="20" fill="#ffffff"/>

  <!-- Letter K (7x7) with offset of 9 blocks (7 + 2 spacing) -> 9*20 = 180 -->
  <!-- Row 0 -->
  <rect x="180" y="0" width="20" height="20" fill="#ffffff"/>
  <rect x="260" y="0" width="20" height="20" fill="#ffffff"/>
  <!-- Row 1 -->
  <rect x="180" y="20" width="20" height="20" fill="#ffffff"/>
  <rect x="240" y="20" width="20" height="20" fill="#ffffff"/>
  <!-- Row 2 -->
  <rect x="180" y="40" width="20" height="20" fill="#ffffff"/>
  <rect x="220" y="40" width="20" height="20" fill="#ffffff"/>
  <!-- Row 3 -->
  <rect x="180" y="60" width="20" height="20" fill="#ffffff"/>
  <rect x="200" y="60" width="20" height="20" fill="#ffffff"/>
  <!-- Row 4 -->
  <rect x="180" y="80" width="20" height="20" fill="#ffffff"/>
  <rect x="220" y="80" width="20" height="20" fill="#ffffff"/>
  <!-- Row 5 -->
  <rect x="180" y="100" width="20" height="20" fill="#ffffff"/>
  <rect x="240" y="100" width="20" height="20" fill="#ffffff"/>
  <!-- Row 6 -->
  <rect x="180" y="120" width="20" height="20" fill="#ffffff"/>
  <rect x="260" y="120" width="20" height="20" fill="#ffffff"/>
</svg>
